<svg height="1646" width="720" xmlns="http://www.w3.org/2000/svg">
<rect height="1646" fill="#555" width="720"></rect>
<text fill="#7f7" font-family="Courier New" font-size="12" xml:space="preserve">
<tspan x="10" y="26">15 megabytes installed</tspan>
<tspan x="10" y="42"></tspan>
<tspan x="10" y="58">node_modules</tspan>
<tspan x="10" y="74">└─┬ cloudant@1.7.1 </tspan>
<tspan x="10" y="90">  ├─┬ async@2.1.2 </tspan>
<tspan x="10" y="106">  │ └── lodash@4.17.4 </tspan>
<tspan x="10" y="122">  ├─┬ cloudant-nano@6.4.1 </tspan>
<tspan x="10" y="138">  │ ├── errs@0.3.2 </tspan>
<tspan x="10" y="154">  │ ├─┬ follow@0.12.1 </tspan>
<tspan x="10" y="170">  │ │ ├── browser-request@0.3.3 </tspan>
<tspan x="10" y="186">  │ │ └─┬ request@2.55.0 </tspan>
<tspan x="10" y="202">  │ │   ├── aws-sign2@0.5.0 </tspan>
<tspan x="10" y="218">  │ │   ├─┬ bl@0.9.5 </tspan>
<tspan x="10" y="234">  │ │   │ └─┬ readable-stream@1.0.34 </tspan>
<tspan x="10" y="250">  │ │   │   ├── core-util-is@1.0.2 </tspan>
<tspan x="10" y="266">  │ │   │   ├── inherits@2.0.3 </tspan>
<tspan x="10" y="282">  │ │   │   ├── isarray@0.0.1 </tspan>
<tspan x="10" y="298">  │ │   │   └── string_decoder@0.10.31 </tspan>
<tspan x="10" y="314">  │ │   ├── caseless@0.9.0 </tspan>
<tspan x="10" y="330">  │ │   ├─┬ combined-stream@0.0.7 </tspan>
<tspan x="10" y="346">  │ │   │ └── delayed-stream@0.0.5 </tspan>
<tspan x="10" y="362">  │ │   ├─┬ form-data@0.2.0 </tspan>
<tspan x="10" y="378">  │ │   │ └── async@0.9.2 </tspan>
<tspan x="10" y="394">  │ │   ├─┬ har-validator@1.8.0 </tspan>
<tspan x="10" y="410">  │ │   │ └── bluebird@2.11.0 </tspan>
<tspan x="10" y="426">  │ │   ├── hawk@2.3.1 </tspan>
<tspan x="10" y="442">  │ │   ├─┬ http-signature@0.10.1 </tspan>
<tspan x="10" y="458">  │ │   │ ├── asn1@0.1.11 </tspan>
<tspan x="10" y="474">  │ │   │ ├── assert-plus@0.1.5 </tspan>
<tspan x="10" y="490">  │ │   │ └── ctype@0.5.3 </tspan>
<tspan x="10" y="506">  │ │   ├─┬ mime-types@2.0.14 </tspan>
<tspan x="10" y="522">  │ │   │ └── mime-db@1.12.0 </tspan>
<tspan x="10" y="538">  │ │   ├── oauth-sign@0.6.0 </tspan>
<tspan x="10" y="554">  │ │   └── qs@2.4.2 </tspan>
<tspan x="10" y="570">  │ └── underscore@1.8.3 </tspan>
<tspan x="10" y="586">  ├─┬ debug@2.2.0 </tspan>
<tspan x="10" y="602">  │ └── ms@0.7.1 </tspan>
<tspan x="10" y="618">  └─┬ request@2.76.0 </tspan>
<tspan x="10" y="634">    ├── aws-sign2@0.6.0 </tspan>
<tspan x="10" y="650">    ├── aws4@1.6.0 </tspan>
<tspan x="10" y="666">    ├── caseless@0.11.0 </tspan>
<tspan x="10" y="682">    ├─┬ combined-stream@1.0.5 </tspan>
<tspan x="10" y="698">    │ └── delayed-stream@1.0.0 </tspan>
<tspan x="10" y="714">    ├── extend@3.0.0 </tspan>
<tspan x="10" y="730">    ├── forever-agent@0.6.1 </tspan>
<tspan x="10" y="746">    ├─┬ form-data@2.1.4 </tspan>
<tspan x="10" y="762">    │ └── asynckit@0.4.0 </tspan>
<tspan x="10" y="778">    ├─┬ har-validator@2.0.6 </tspan>
<tspan x="10" y="794">    │ ├─┬ chalk@1.1.3 </tspan>
<tspan x="10" y="810">    │ │ ├── ansi-styles@2.2.1 </tspan>
<tspan x="10" y="826">    │ │ ├── escape-string-regexp@1.0.5 </tspan>
<tspan x="10" y="842">    │ │ ├─┬ has-ansi@2.0.0 </tspan>
<tspan x="10" y="858">    │ │ │ └── ansi-regex@2.1.1 </tspan>
<tspan x="10" y="874">    │ │ ├── strip-ansi@3.0.1 </tspan>
<tspan x="10" y="890">    │ │ └── supports-color@2.0.0 </tspan>
<tspan x="10" y="906">    │ ├─┬ commander@2.9.0 </tspan>
<tspan x="10" y="922">    │ │ └── graceful-readlink@1.0.1 </tspan>
<tspan x="10" y="938">    │ ├─┬ is-my-json-valid@2.16.0 </tspan>
<tspan x="10" y="954">    │ │ ├── generate-function@2.0.0 </tspan>
<tspan x="10" y="970">    │ │ ├─┬ generate-object-property@1.2.0 </tspan>
<tspan x="10" y="986">    │ │ │ └── is-property@1.0.2 </tspan>
<tspan x="10" y="1002">    │ │ ├── jsonpointer@4.0.1 </tspan>
<tspan x="10" y="1018">    │ │ └── xtend@4.0.1 </tspan>
<tspan x="10" y="1034">    │ └─┬ pinkie-promise@2.0.1 </tspan>
<tspan x="10" y="1050">    │   └── pinkie@2.0.4 </tspan>
<tspan x="10" y="1066">    ├─┬ hawk@3.1.3 </tspan>
<tspan x="10" y="1082">    │ ├── boom@2.10.1 </tspan>
<tspan x="10" y="1098">    │ ├── cryptiles@2.0.5 </tspan>
<tspan x="10" y="1114">    │ ├── hoek@2.16.3 </tspan>
<tspan x="10" y="1130">    │ └── sntp@1.0.9 </tspan>
<tspan x="10" y="1146">    ├─┬ http-signature@1.1.1 </tspan>
<tspan x="10" y="1162">    │ ├── assert-plus@0.2.0 </tspan>
<tspan x="10" y="1178">    │ ├─┬ jsprim@1.4.0 </tspan>
<tspan x="10" y="1194">    │ │ ├── assert-plus@1.0.0 </tspan>
<tspan x="10" y="1210">    │ │ ├── extsprintf@1.0.2 </tspan>
<tspan x="10" y="1226">    │ │ ├── json-schema@0.2.3 </tspan>
<tspan x="10" y="1242">    │ │ └── verror@1.3.6 </tspan>
<tspan x="10" y="1258">    │ └─┬ sshpk@1.13.0 </tspan>
<tspan x="10" y="1274">    │   ├── asn1@0.2.3 </tspan>
<tspan x="10" y="1290">    │   ├── assert-plus@1.0.0 </tspan>
<tspan x="10" y="1306">    │   ├── bcrypt-pbkdf@1.0.1 </tspan>
<tspan x="10" y="1322">    │   ├─┬ dashdash@1.14.1 </tspan>
<tspan x="10" y="1338">    │   │ └── assert-plus@1.0.0 </tspan>
<tspan x="10" y="1354">    │   ├── ecc-jsbn@0.1.1 </tspan>
<tspan x="10" y="1370">    │   ├─┬ getpass@0.1.6 </tspan>
<tspan x="10" y="1386">    │   │ └── assert-plus@1.0.0 </tspan>
<tspan x="10" y="1402">    │   ├── jodid25519@1.0.2 </tspan>
<tspan x="10" y="1418">    │   ├── jsbn@0.1.1 </tspan>
<tspan x="10" y="1434">    │   └── tweetnacl@0.14.5 </tspan>
<tspan x="10" y="1450">    ├── is-typedarray@1.0.0 </tspan>
<tspan x="10" y="1466">    ├── isstream@0.1.2 </tspan>
<tspan x="10" y="1482">    ├── json-stringify-safe@5.0.1 </tspan>
<tspan x="10" y="1498">    ├─┬ mime-types@2.1.15 </tspan>
<tspan x="10" y="1514">    │ └── mime-db@1.27.0 </tspan>
<tspan x="10" y="1530">    ├── node-uuid@1.4.8 </tspan>
<tspan x="10" y="1546">    ├── oauth-sign@0.8.2 </tspan>
<tspan x="10" y="1562">    ├── qs@6.3.2 </tspan>
<tspan x="10" y="1578">    ├── stringstream@0.0.5 </tspan>
<tspan x="10" y="1594">    ├─┬ tough-cookie@2.3.2 </tspan>
<tspan x="10" y="1610">    │ └── punycode@1.4.1 </tspan>
<tspan x="10" y="1626">    └── tunnel-agent@0.4.3</tspan>
</text>
</svg>
